<svg width="120" height="120" viewBox="0 0 120 120" fill="none" xmlns="http://www.w3.org/2000/svg">
<circle cx="60" cy="60" r="54" fill="#0A6CC7"/>
<path d="M57.9019 32.5C59.0566 30.5 61.9434 30.5 63.0981 32.5L89.5118 78.25C90.6665 80.25 89.2232 82.75 86.9138 82.75H34.0862C31.7768 82.75 30.3334 80.25 31.4881 78.25L57.9019 32.5Z" fill="white"/>
<path d="M59.634 36.5C60.0189 35.8333 60.9811 35.8333 61.366 36.5L85.1817 77.75C85.5666 78.4167 85.0855 79.25 84.3157 79.25H36.6843C35.9145 79.25 35.4334 78.4167 35.8183 77.75L59.634 36.5Z" fill="#0A6CC7"/>
<rect x="35" y="48" width="51" height="3.5" rx="1.75" fill="white"/>
</svg>
